<?xml version="1.0" standalone="no"?>
<!DOCTYPE svg PUBLIC "-//W3C//DTD SVG 20010904//EN"
 "http://www.w3.org/TR/2001/REC-SVG-20010904/DTD/svg10.dtd">
<svg version="1.0" xmlns="http://www.w3.org/2000/svg"
 width="1600.000000pt" height="1600.000000pt" viewBox="0 0 1600.000000 1600.000000"
 preserveAspectRatio="xMidYMid meet">

<g transform="translate(0.000000,1600.000000) scale(0.100000,-0.100000)"
fill="#000000" stroke="none">
<path d="M1285 15989 c-429 -55 -802 -288 -1042 -651 -107 -162 -170 -314
-215 -518 l-23 -105 0 -6705 c0 -6513 1 -6708 19 -6805 75 -399 305 -744 644
-966 161 -105 334 -174 541 -217 81 -16 448 -17 6796 -17 l6710 0 100 22 c306
68 542 196 752 404 206 204 339 452 405 749 l23 105 0 6715 0 6715 -23 105
c-45 204 -108 356 -215 518 -218 330 -528 541 -932 634 l-100 23 -6685 1
c-3877 1 -6714 -2 -6755 -7z m6844 -4670 c270 -17 527 -69 642 -130 117 -62
200 -182 237 -340 14 -63 17 -129 17 -439 0 -201 -6 -534 -13 -740 -17 -504
-18 -1080 -3 -1195 40 -302 174 -500 327 -482 190 21 482 326 846 882 373 569
646 1090 909 1739 101 247 146 313 247 363 l57 28 810 6 c446 4 954 8 1130 10
338 2 400 -4 510 -51 206 -88 203 -312 -10 -745 -200 -408 -508 -862 -1145
-1685 -488 -632 -592 -789 -641 -967 -62 -226 31 -385 466 -791 600 -560 1004
-992 1227 -1312 92 -132 203 -329 230 -408 34 -100 32 -208 -5 -284 -54 -109
-167 -184 -352 -233 l-100 -26 -915 -15 c-628 -10 -936 -11 -981 -4 -246 37
-518 177 -754 387 -129 116 -249 243 -509 538 -350 399 -523 559 -683 632 -85
38 -196 39 -274 1 -223 -110 -346 -428 -383 -995 -12 -191 -16 -217 -40 -269
-37 -81 -66 -115 -123 -146 -102 -56 -116 -57 -726 -58 -455 -1 -587 2 -692
14 -790 96 -1543 430 -2180 965 -131 111 -379 355 -521 514 -795 889 -1708
2386 -2523 4137 -190 408 -205 448 -206 550 0 98 15 134 76 176 110 76 214 83
1274 83 l780 1 82 -29 c108 -37 161 -70 218 -133 56 -63 68 -85 183 -353 217
-506 412 -891 675 -1330 446 -744 747 -1113 970 -1189 272 -92 412 176 458
879 13 197 6 820 -11 1055 -20 265 -77 496 -150 608 -98 151 -254 244 -481
290 -89 18 -94 20 -97 46 -5 40 38 105 122 183 154 144 351 212 710 248 83 8
178 16 211 18 160 8 959 6 1104 -4z"/>
</g>
</svg>
